<svg width="16" height="16" viewBox="0 0 16 16" fill="none" xmlns="http://www.w3.org/2000/svg">
<g clip-path="url(#clip0_1_119)">
<path d="M5.70809 4.18578C6.17012 3.74131 6.17718 3.00059 5.72225 2.54919L3.57065 0.394125C3.04159 -0.131375 2.18453 -0.131375 1.65547 0.394125L1.29572 0.757438L5.21431 4.676C5.36946 4.51378 5.54234 4.34444 5.70809 4.18578Z" fill="#333333"/>
<path d="M10.8082 11.268C10.7554 11.3103 10.7059 11.3492 10.6637 11.3844C10.0606 11.85 8.84365 10.9118 6.96727 9.03189C5.0874 7.15186 4.14562 5.93861 4.61121 5.33545C4.64649 5.29311 4.6853 5.24376 4.73108 5.19079L0.794897 1.25464L0.371678 1.67786C0.090428 1.96008 -0.0452907 2.58923 0.0146155 3.44398C0.016928 3.47817 0.0185218 3.51148 0.0214593 3.54626C0.022303 3.55701 0.0237718 3.56811 0.0247405 3.57886C0.151616 5.02442 0.820897 7.07679 2.31602 9.22683C2.87487 10.0348 3.54721 10.853 4.34668 11.6525C8.5968 15.9025 13.3795 16.5657 14.3177 15.6275L14.7391 15.2095L14.741 15.2078L14.7445 15.2043L10.8082 11.268Z" fill="#333333"/>
<path d="M15.6052 12.4285L13.4501 10.277C12.9951 9.82208 12.258 9.82914 11.8136 10.2912C11.6562 10.4555 11.4885 10.6232 11.3276 10.7808C11.3274 10.781 11.3271 10.7812 11.3269 10.7814C11.3256 10.7825 11.3244 10.7837 11.3233 10.785L15.2419 14.7035L15.6052 14.3438C16.1307 13.8148 16.1307 12.9576 15.6052 12.4285Z" fill="#333333"/>
</g>
<defs>
<clipPath id="clip0_1_119">
<rect width="16" height="16" fill="white"/>
</clipPath>
</defs>
</svg>
